<?xml version="1.0" encoding="utf-8"?>
<!-- Generator: Adobe Illustrator 26.0.2, SVG Export Plug-In . SVG Version: 6.00 Build 0)  -->
<svg version="1.1" id="Layer_1" xmlns="http://www.w3.org/2000/svg" xmlns:xlink="http://www.w3.org/1999/xlink" x="0px" y="0px"
	 viewBox="0 0 512 512" style="enable-background:new 0 0 512 512;" xml:space="preserve">
<style type="text/css">
	.st0{fill:#474747;}
</style>
<g>
	<g>
	</g>
</g>
<g>
	<g>
		<path class="st0" d="M449.4,62.6c-9.7-9.7-25.5-9.7-35.2,0l-54,54c-11.6-8.7-24.3-15.9-37.6-21.4C301.8,86.5,279.2,82,256,82
			c-23.2,0-45.8,4.5-66.7,13.1c-20.9,8.6-40.1,21.4-56.4,37.7c-16.9,16.9-29.7,36.6-38.2,57.6C86.2,211.5,82,233.7,82,256
			c0,22.3,4.2,44.5,12.7,65.5c5.5,13.6,12.8,26.6,21.9,38.7l-54,54c-9.7,9.7-9.7,25.5,0,35.2c9.7,9.7,25.5,9.7,35.2,0l54-54
			c11.6,8.7,24.3,15.9,37.6,21.4c20.9,8.6,43.5,13.1,66.7,13.1c23.2,0,45.8-4.5,66.7-13.1c20.9-8.6,40.1-21.4,56.4-37.7
			c16.9-16.9,29.7-36.6,38.2-57.6c8.5-21,12.7-43.2,12.7-65.5c0-22.3-4.2-44.5-12.7-65.5c-5.5-13.6-12.8-26.6-21.9-38.7l54-54
			C459.1,88,459.1,72.3,449.4,62.6z M140.8,302.8c-6.1-15-9.1-30.9-9.1-46.8c0-16,3-31.9,9.1-46.8c6.1-15,15.1-28.9,27.3-41.1
			c11.8-11.8,25.4-20.8,40.2-27c14.9-6.1,30.9-9.4,47.7-9.4c16.7,0,32.8,3.2,47.7,9.4c7.3,3,14.3,6.7,20.9,11.1L152.3,324.6
			C147.7,317.7,143.9,310.4,140.8,302.8z M371.2,302.8c-6.1,15-15.1,28.9-27.3,41.1c-11.8,11.8-25.4,20.8-40.2,27
			c-14.9,6.1-30.9,9.4-47.7,9.4c-16.7,0-32.8-3.2-47.7-9.4c-7.3-3-14.3-6.7-20.9-11.1l172.3-172.3c4.6,6.9,8.4,14.2,11.4,21.7
			c6.1,15,9.1,30.9,9.1,46.8C380.3,272,377.2,287.9,371.2,302.8z"/>
	</g>
</g>
</svg>
